<svg xmlns="http://www.w3.org/2000/svg" xmlns:xlink="http://www.w3.org/1999/xlink" viewBox="0 0 320 560" width="320" height="560">
    <rect width="320" height="560" fill="white"/>
    
  <rect x="8" y="8" width="304" height="544" rx="36" fill="#1B1F23"/>
  <rect x="14" y="14" width="292" height="532" rx="30" fill="white"/>
  <rect x="122" y="20" width="76" height="18" rx="9" fill="#1B1F23"/>
  
      <g transform="translate(28, 58)">
        
  <circle cx="22" cy="22" r="16" fill="#94A3B8"/>
  <text x="22" y="26.48" font-family="Arial, sans-serif" font-size="14.4" font-weight="700" fill="white" text-anchor="middle">Y</text>
        
  <!-- Halo painted first so it sits behind the dashed ring. -->
  <circle cx="22" cy="22" r="24" fill="#0A66C2" opacity="0">
    <animate attributeName="r" values="24;32;38" dur="2.6s" begin="0s" repeatCount="indefinite" calcMode="spline" keySplines="0.2 0 0.2 1; 0.2 0 0.2 1" keyTimes="0;0.55;1"/>
    <animate attributeName="opacity" values="0.16;0.05;0" dur="2.6s" begin="0s" repeatCount="indefinite" keyTimes="0;0.5;1"/>
  </circle>
  <circle cx="22" cy="22" r="24" fill="none" stroke="#0A66C2" stroke-width="2.4" stroke-dasharray="4 3">
    <animate attributeName="r" values="24;26.5;24" dur="2.6s" begin="0s" repeatCount="indefinite" calcMode="spline" keySplines="0.4 0 0.2 1; 0.4 0 0.2 1" keyTimes="0;0.5;1"/>
    <animate attributeName="opacity" values="0.65;1;0.65" dur="2.6s" begin="0s" repeatCount="indefinite" calcMode="spline" keySplines="0.4 0 0.2 1; 0.4 0 0.2 1" keyTimes="0;0.5;1"/>
    <animate attributeName="stroke-dashoffset" values="0;14" dur="14s" begin="0s" repeatCount="indefinite"/>
  </circle>
        <rect x="52" y="8" width="180" height="28" rx="14" fill="#EEF3F8" stroke="#E0DFDC"/>
        
  <g transform="translate(58,14)" stroke="#56687A" stroke-width="1.6" fill="none" stroke-linecap="round">
    <circle cx="5.88" cy="5.88" r="4.48"/>
    <line x1="9.38" y1="9.38" x2="12.88" y2="12.88"/>
  </g>
        <text x="78" y="26" font-family="Arial, sans-serif" font-size="11" fill="#56687A">Search</text>
        <rect x="240" y="8" width="28" height="28" rx="14" fill="#F3F2EF"/>
      </g>
      <line x1="28" y1="110" x2="292" y2="110" stroke="#E0DFDC"/>

      <g transform="translate(72, 108)">
        <rect x="0" y="0" width="170" height="28" rx="14" fill="#EEF3F8" stroke="#0A66C2"/>
        <text x="85" y="18" font-family="Arial, sans-serif" font-size="12" font-weight="700" fill="#004182" text-anchor="middle">① Tap your profile photo</text>
      </g>
      <path d="M70 122 L56 90" stroke="#0A66C2" stroke-width="1.8" fill="none" marker-end="url(#arrm)"/>

      <g transform="translate(28, 160)">
        <rect x="0" y="0" width="264" height="350" rx="12" fill="white" stroke="#E0DFDC"/>
        <rect x="0" y="0" width="264" height="70" fill="#F3F2EF"/>
        
  <circle cx="36" cy="36" r="20" fill="#94A3B8"/>
  <text x="36" y="41.6" font-family="Arial, sans-serif" font-size="18" font-weight="700" fill="white" text-anchor="middle">Y</text>
        <text x="66" y="32" font-family="Arial, sans-serif" font-size="13" font-weight="700" fill="#191919">Your Name</text>
        <text x="66" y="50" font-family="Arial, sans-serif" font-size="11" fill="#56687A">Role · Trescon</text>

        <rect x="12" y="86" width="240" height="40" rx="8" fill="#EEF3F8" stroke="#0A66C2"/>
        <text x="28" y="111" font-family="Arial, sans-serif" font-size="13" font-weight="700" fill="#004182">View Profile</text>
        <text x="224" y="111" font-family="Arial, sans-serif" font-size="16" fill="#004182">›</text>

        <text x="28" y="160" font-family="Arial, sans-serif" font-size="12" fill="#56687A">Settings</text>
        <text x="28" y="186" font-family="Arial, sans-serif" font-size="12" fill="#56687A">Help</text>
        <text x="28" y="212" font-family="Arial, sans-serif" font-size="12" fill="#56687A">Sign out</text>

        <rect x="12" y="240" width="240" height="26" rx="13" fill="#EEF3F8" stroke="#0A66C2"/>
        <text x="132" y="258" font-family="Arial, sans-serif" font-size="11" font-weight="700" fill="#004182" text-anchor="middle">② Then tap “View Profile”</text>
      </g>

      <defs>
        <marker id="arrm" viewBox="0 0 10 10" refX="9" refY="5" markerWidth="6" markerHeight="6" orient="auto-start-reverse">
          <path d="M 0 0 L 10 5 L 0 10 z" fill="#0A66C2"/>
        </marker>
      </defs>
    

  </svg>